REM DIRINDEX 1\3,1\2\4,1\2\5,1\2\6
REM DIRNAME folder01,folder02,folder03,folder04,folder05,folder06
TITLE ""
FILE "149.mp3" MP3
  TRACK 01 AUDIO
    TITLE "0:"
    INDEX 01 00:00:00
  TRACK 02 AUDIO
    TITLE "4:cjc137_6565"
    INDEX 01 00:00:03
  TRACK 03 AUDIO
    TITLE "0:"
    INDEX 01 00:01:32
  TRACK 04 AUDIO
    TITLE "6:cjc137_6566"
    INDEX 01 00:01:40
  TRACK 05 AUDIO
    TITLE "0:"
    INDEX 01 00:02:73
  TRACK 06 AUDIO
    TITLE "5:cjc137_6567"
    INDEX 01 00:03:06
  TRACK 07 AUDIO
    TITLE "0:"
    INDEX 01 00:04:33
  TRACK 08 AUDIO
    TITLE "4:cjc137_6568"
    INDEX 01 00:05:44
  TRACK 09 AUDIO
    TITLE "0:"
    INDEX 01 00:06:73
  TRACK 10 AUDIO
    TITLE "6:cjc137_6569"
    INDEX 01 00:07:07
  TRACK 11 AUDIO
    TITLE "0:"
    INDEX 01 00:08:28
  TRACK 12 AUDIO
    TITLE "5:cjc137_6570"
    INDEX 01 00:08:34
  TRACK 13 AUDIO
    TITLE "0:"
    INDEX 01 00:09:65
  TRACK 14 AUDIO
    TITLE "4:cjc137_6571"
    INDEX 01 00:10:72
  TRACK 15 AUDIO
    TITLE "0:"
    INDEX 01 00:12:28
  TRACK 16 AUDIO
    TITLE "6:cjc137_6572"
    INDEX 01 00:12:36
  TRACK 17 AUDIO
    TITLE "0:"
    INDEX 01 00:13:47
  TRACK 18 AUDIO
    TITLE "5:cjc137_6573"
    INDEX 01 00:13:51
  TRACK 19 AUDIO
    TITLE "0:"
    INDEX 01 00:15:07
  TRACK 20 AUDIO
    TITLE "4:cjc137_6574"
    INDEX 01 00:16:14
  TRACK 21 AUDIO
    TITLE "0:"
    INDEX 01 00:17:37
  TRACK 22 AUDIO
    TITLE "6:cjc137_6575"
    INDEX 01 00:17:47
  TRACK 23 AUDIO
    TITLE "0:"
    INDEX 01 00:19:01
  TRACK 24 AUDIO
    TITLE "5:cjc137_6576"
    INDEX 01 00:19:09
  TRACK 25 AUDIO
    TITLE "0:"
    INDEX 01 00:20:28
  TRACK 26 AUDIO
    TITLE "4:cjc137_6577"
    INDEX 01 00:21:41
  TRACK 27 AUDIO
    TITLE "0:"
    INDEX 01 00:22:70
  TRACK 28 AUDIO
    TITLE "6:cjc137_6578"
    INDEX 01 00:23:03
  TRACK 29 AUDIO
    TITLE "0:"
    INDEX 01 00:24:37
  TRACK 30 AUDIO
    TITLE "5:cjc137_6579"
    INDEX 01 00:24:43
  TRACK 31 AUDIO
    TITLE "0:"
    INDEX 01 00:25:70
  TRACK 32 AUDIO
    TITLE "4:cjc137_6580"
    INDEX 01 00:27:06
  TRACK 33 AUDIO
    TITLE "0:"
    INDEX 01 00:28:04
  TRACK 34 AUDIO
    TITLE "6:cjc137_6581"
    INDEX 01 00:28:12
  TRACK 35 AUDIO
    TITLE "0:"
    INDEX 01 00:30:22
  TRACK 36 AUDIO
    TITLE "5:cjc137_6582"
    INDEX 01 00:30:28
  TRACK 37 AUDIO
    TITLE "0:"
    INDEX 01 00:31:29
  TRACK 38 AUDIO
    TITLE "4:cjc137_6583"
    INDEX 01 00:32:37
  TRACK 39 AUDIO
    TITLE "0:"
    INDEX 01 00:33:52
  TRACK 40 AUDIO
    TITLE "6:cjc137_6584"
    INDEX 01 00:33:58
  TRACK 41 AUDIO
    TITLE "0:"
    INDEX 01 00:34:73
  TRACK 42 AUDIO
    TITLE "5:cjc137_6585"
    INDEX 01 00:35:04
  TRACK 43 AUDIO
    TITLE "0:"
    INDEX 01 00:36:19
  TRACK 44 AUDIO
    TITLE "4:cjc137_6586"
    INDEX 01 00:37:26
  TRACK 45 AUDIO
    TITLE "0:"
    INDEX 01 00:38:47
  TRACK 46 AUDIO
    TITLE "6:cjc137_6587"
    INDEX 01 00:38:55
  TRACK 47 AUDIO
    TITLE "0:"
    INDEX 01 00:39:56
  TRACK 48 AUDIO
    TITLE "5:cjc137_6588"
    INDEX 01 00:39:60
  TRACK 49 AUDIO
    TITLE "0:"
    INDEX 01 00:41:04
  TRACK 50 AUDIO
    TITLE "4:cjc137_6589"
    INDEX 01 00:42:14
  TRACK 51 AUDIO
    TITLE "0:"
    INDEX 01 00:43:39
  TRACK 52 AUDIO
    TITLE "6:cjc137_6590"
    INDEX 01 00:43:42
  TRACK 53 AUDIO
    TITLE "0:"
    INDEX 01 00:44:40
  TRACK 54 AUDIO
    TITLE "5:cjc137_6591"
    INDEX 01 00:44:48
  TRACK 55 AUDIO
    TITLE "0:"
    INDEX 01 00:45:71
  TRACK 56 AUDIO
    TITLE "4:cjc137_6592"
    INDEX 01 00:47:01
  TRACK 57 AUDIO
    TITLE "0:"
    INDEX 01 00:48:04
  TRACK 58 AUDIO
    TITLE "6:cjc137_6593"
    INDEX 01 00:48:14
  TRACK 59 AUDIO
    TITLE "0:"
    INDEX 01 00:49:43
  TRACK 60 AUDIO
    TITLE "5:cjc137_6594"
    INDEX 01 00:49:47
  TRACK 61 AUDIO
    TITLE "0:"
    INDEX 01 00:50:52
  TRACK 62 AUDIO
    TITLE "4:cjc137_6595"
    INDEX 01 00:51:62
  TRACK 63 AUDIO
    TITLE "0:"
    INDEX 01 00:53:02
  TRACK 64 AUDIO
    TITLE "6:cjc137_6596"
    INDEX 01 00:53:09
  TRACK 65 AUDIO
    TITLE "0:"
    INDEX 01 00:54:34
  TRACK 66 AUDIO
    TITLE "5:cjc137_6597"
    INDEX 01 00:54:40
  TRACK 67 AUDIO
    TITLE "0:"
    INDEX 01 00:55:55
  TRACK 68 AUDIO
    TITLE "4:cjc137_6598"
    INDEX 01 00:56:67
  TRACK 69 AUDIO
    TITLE "0:"
    INDEX 01 00:58:01
  TRACK 70 AUDIO
    TITLE "6:cjc137_6599"
    INDEX 01 00:58:11
  TRACK 71 AUDIO
    TITLE "0:"
    INDEX 01 00:59:28
  TRACK 72 AUDIO
    TITLE "5:cjc137_6600"
    INDEX 01 00:59:36
  TRACK 73 AUDIO
    TITLE "0:"
    INDEX 01 01:00:47
  TRACK 74 AUDIO
    TITLE "4:cjc137_6601"
    INDEX 01 01:01:56
  TRACK 75 AUDIO
    TITLE "0:"
    INDEX 01 01:03:02
  TRACK 76 AUDIO
    TITLE "6:cjc137_6602"
    INDEX 01 01:03:10
  TRACK 77 AUDIO
    TITLE "0:"
    INDEX 01 01:04:70
  TRACK 78 AUDIO
    TITLE "5:cjc137_6603"
    INDEX 01 01:05:03
  TRACK 79 AUDIO
    TITLE "0:"
    INDEX 01 01:06:22
  TRACK 80 AUDIO
    TITLE "4:cjc137_6604"
    INDEX 01 01:07:35
  TRACK 81 AUDIO
    TITLE "0:"
    INDEX 01 01:08:46
  TRACK 82 AUDIO
    TITLE "6:cjc137_6605"
    INDEX 01 01:08:50
  TRACK 83 AUDIO
    TITLE "0:"
    INDEX 01 01:09:73
  TRACK 84 AUDIO
    TITLE "5:cjc137_6606"
    INDEX 01 01:10:10
  TRACK 85 AUDIO
    TITLE "0:"
    INDEX 01 01:11:19
  TRACK 86 AUDIO
    TITLE "4:cjc137_6607"
    INDEX 01 01:12:28
  TRACK 87 AUDIO
    TITLE "0:"
    INDEX 01 01:13:59
  TRACK 88 AUDIO
    TITLE "6:cjc137_6608"
    INDEX 01 01:13:63
  TRACK 89 AUDIO
    TITLE "0:"
    INDEX 01 01:14:74
  TRACK 90 AUDIO
    TITLE "5:cjc137_6609"
    INDEX 01 01:15:09
  TRACK 91 AUDIO
    TITLE "0:"
    INDEX 01 01:16:38
  TRACK 92 AUDIO
    TITLE "4:cjc137_6610"
    INDEX 01 01:17:45
  TRACK 93 AUDIO
    TITLE "0:"
    INDEX 01 01:18:70
  TRACK 94 AUDIO
    TITLE "6:cjc137_6611"
    INDEX 01 01:19:03
  TRACK 95 AUDIO
    TITLE "0:"
    INDEX 01 01:20:22
  TRACK 96 AUDIO
    TITLE "5:cjc137_6612"
    INDEX 01 01:20:28
  TRACK 97 AUDIO
    TITLE "0:"
    INDEX 01 01:21:55
  TRACK 98 AUDIO
    TITLE "4:cjc137_6613"
    INDEX 01 01:22:64
  TRACK 99 AUDIO
    TITLE "0:"
    INDEX 01 01:23:65
  TRACK 100 AUDIO
    TITLE "6:cjc137_6614"
    INDEX 01 01:24:00
  TRACK 101 AUDIO
    TITLE "0:"
    INDEX 01 01:25:35
  TRACK 102 AUDIO
    TITLE "5:cjc137_6615"
    INDEX 01 01:25:39
  TRACK 103 AUDIO
    TITLE "0:"
    INDEX 01 01:26:40
  TRACK 104 AUDIO
    TITLE "4:cjc137_6616"
    INDEX 01 01:27:48
  TRACK 105 AUDIO
    TITLE "0:"
    INDEX 01 01:28:59
  TRACK 106 AUDIO
    TITLE "6:cjc137_6617"
    INDEX 01 01:28:65
  TRACK 107 AUDIO
    TITLE "0:"
    INDEX 01 01:30:46
  TRACK 108 AUDIO
    TITLE "5:cjc137_6618"
    INDEX 01 01:30:48
  TRACK 109 AUDIO
    TITLE "0:"
    INDEX 01 01:31:59
  TRACK 110 AUDIO
    TITLE "4:cjc137_6619"
    INDEX 01 01:32:66
  TRACK 111 AUDIO
    TITLE "0:"
    INDEX 01 01:33:74
  TRACK 112 AUDIO
    TITLE "6:cjc137_6620"
    INDEX 01 01:34:06
  TRACK 113 AUDIO
    TITLE "0:"
    INDEX 01 01:35:16
  TRACK 114 AUDIO
    TITLE "5:cjc137_6621"
    INDEX 01 01:35:22
  TRACK 115 AUDIO
    TITLE "0:"
    INDEX 01 01:36:29
  TRACK 116 AUDIO
    TITLE "4:cjc137_6622"
    INDEX 01 01:37:38
  TRACK 117 AUDIO
    TITLE "0:"
    INDEX 01 01:38:73
  TRACK 118 AUDIO
    TITLE "6:cjc137_6623"
    INDEX 01 01:39:04
  TRACK 119 AUDIO
    TITLE "0:"
    INDEX 01 01:40:46
  TRACK 120 AUDIO
    TITLE "5:cjc137_6624"
    INDEX 01 01:40:56
  TRACK 121 AUDIO
    TITLE "0:"
    INDEX 01 01:42:16
